<?xml version="1.0" encoding="utf-8"?>
<!-- Generator: Adobe Illustrator 22.0.1, SVG Export Plug-In . SVG Version: 6.00 Build 0)  -->
<svg version="1.1" id="Layer_1" xmlns="http://www.w3.org/2000/svg" xmlns:xlink="http://www.w3.org/1999/xlink" x="0px" y="0px"
	 viewBox="0 0 1400 1400" style="enable-background:new 0 0 1400 1400;" xml:space="preserve">
<style type="text/css">
	.st0{fill:#F4F4F4;}
	.st1{fill:#4CEAF2;}
	.st2{fill:#2ECECE;}
	.st3{fill:#FFBC00;}
	.st4{fill:none;stroke:#FFBC00;stroke-width:0.6405;stroke-miterlimit:10;}
	.st5{fill:#FF9100;}
	.st6{fill:#FF2E51;}
	.st7{fill:#FFFFFF;}
	.st8{fill:#2AD8B6;}
	.st9{fill:#1AC6A5;}
	.st10{fill:#760001;}
	.st11{fill:#F7E288;}
	.st12{fill:#FF5132;}
	.st13{fill:#E83C25;}
	.st14{opacity:0.4;fill:#FFBC00;}
	.st15{fill:#00A142;}
	.st16{fill:#FFD91D;}
	.st17{fill:#5B0207;}
	.st18{fill:#0BA88A;}
	.st19{fill:#EAD26E;}
	.st20{fill:#FF6E8D;}
	.st21{fill:#A81E26;}
	.st22{fill:#870F1B;}
	.st23{fill:#560408;}
	.st24{fill:#FF9D00;}
	.st25{fill:#EDD25F;}
	.st26{fill:#FF6700;}
	.st27{fill:#FF812C;}
	.st28{fill:#FF4E00;}
	.st29{fill:#FFB000;}
	.st30{fill:#FCDFAC;}
	.st31{fill:#EFC684;}
	.st32{fill:#E51A46;}
	.st33{fill:#30D8D8;}
	.st34{fill:#D32411;}
	.st35{fill:#F2F0ED;}
</style>
<rect class="st0" width="1400" height="1400"/>
<g>
	<g>
		<path class="st1" d="M436.4,124.2v261.7c0,14.7-5.8,28.5-16.2,38.9c-10.5,10.5-24.3,16.2-38.9,16.2H119.5
			c-14.7,0-28.5-5.8-38.9-16.2c-10.5-10.5-16.2-24.3-16.2-38.9V124.2c0-14.7,5.8-28.5,16.2-38.9c0.3-0.3,0.5-0.5,0.8-0.8
			c0.4-0.4,0.8-0.7,1.2-1.1c10.2-9.3,23.2-14.3,37-14.3h261.7c14.7,0,28.5,5.8,38.9,16.2C430.6,95.7,436.4,109.5,436.4,124.2z"/>
		<path class="st2" d="M420.2,424.8c10.5-10.5,16.2-24.3,16.2-38.9V208.8l-75.6-75.6l-194,268.3l39.6,39.6h174.9
			C395.9,441,409.7,435.3,420.2,424.8z"/>
		<g>
			<path class="st3" d="M201.1,284.4c-14-51.3-33.4-101-58.2-147.6l-19.6,11.5c22.9,43,41.1,88.8,54.4,136.1H201.1z"/>
			<g>
				<g>
					<path class="st4" d="M211.6,189.6"/>
				</g>
			</g>
			<path class="st5" d="M192.4,283.5h22.4c-0.3-19.5-0.8-38.9-1.4-58.4c-1.2-41.1-3-82.2-5.3-123.2l-22.4,1.4
				c2.3,40.8,4,81.7,5.3,122.6C191.6,245.1,192.1,264.3,192.4,283.5z"/>
			<path class="st5" d="M243.2,284.4h22.4c0-11.3-0.2-22.4-0.4-33.5L263.6,138l-22.4,0.4l1.7,112.9
				C243,262.4,243.2,273.5,243.2,284.4z"/>
			<path class="st5" d="M299.4,284.4c0.8-17.1,1.9-34.3,3.3-51.4c3-35.3,7.1-70.7,11.3-106.1l-22.3-2.9
				c-4.2,35.5-8.3,71.1-11.4,106.9c-1.5,17.8-2.7,35.6-3.5,53.5H299.4z"/>
			<path class="st3" d="M327.3,284.4c1.2-7.5,2.5-15.1,3.9-22.6c3.9-21.8,8.3-43.6,13-65.2c4.8-21.6,9.9-43,16.6-63.5l-21.2-7.7
				c-7.1,21.8-12.4,43.9-17.2,65.8c-4.8,22-9.3,44-13.2,66.2c-1.6,9-3.1,17.9-4.6,26.9H327.3z"/>
			<path class="st3" d="M194.7,284.4h23c-2.7-13.3-5.6-26.5-8.7-39.6c-7.9-34.1-16.8-67.9-25.7-101.6l-21.6,6.3
				c8.9,33.6,17.7,67.2,25.5,100.9C189.8,261.7,192.3,273,194.7,284.4z"/>
			<polygon class="st3" points="284.7,284.4 284,153.6 261.6,153.6 262.3,284.4 			"/>
			<path class="st3" d="M250.2,284.4c-0.7-41.9-3.3-83.7-7.7-125.3l-22.3,2.6c4.4,40.7,6.9,81.7,7.6,122.7H250.2z"/>
			<path class="st5" d="M318.6,284.4c5.3-42.9,9.2-86,11.6-129.2l-22.4-1.4c-2.4,43.7-6.4,87.2-11.8,130.6H318.6z"/>
			<path class="st5" d="M186.8,284.4c-14.4-36.9-31.5-72.6-51.2-106.6l-19.1,12.3c17.5,30.2,32.9,61.7,46.1,94.3H186.8z"/>
			<path class="st5" d="M334.8,284.4c12-38.7,23.4-77.5,34.3-116.5l-21.5-6.7c-11.5,41.2-23.7,82.3-36.4,123.2H334.8z"/>
			<path class="st5" d="M241.2,284.4c-6-41.9-12.9-83.7-20.6-125.3l-22,4.6c7.5,40.1,14.1,80.4,20,120.8H241.2z"/>
			<path class="st6" d="M294,226.6c-8,20.6-25.6,34.4-45.1,34.4s-37.2-13.8-45.1-34.4H135l31.7,174.9H331l31.7-174.9H294z"/>
			<circle class="st7" cx="251.7" cy="336.8" r="37.3"/>
		</g>
	</g>
	<g>
		<path class="st8" d="M879.7,124.2v261.7c0,14.7-5.8,28.5-16.2,38.9C853,435.3,839.2,441,824.5,441H562.8
			c-14.7,0-28.5-5.8-38.9-16.2c-10.5-10.5-16.2-24.3-16.2-38.9V124.2c0-14.7,5.8-28.5,16.2-38.9c0.3-0.3,0.5-0.5,0.8-0.8
			c0.4-0.4,0.8-0.7,1.2-1.1c10.2-9.3,23.2-14.3,37-14.3h261.7c14.7,0,28.5,5.8,38.9,16.2C873.9,95.7,879.7,109.5,879.7,124.2z"/>
		<path class="st9" d="M863.5,424.8c10.5-10.5,16.2-24.3,16.2-38.9V264.4l-162-162L621,400l41,41h162.4
			C839.2,441,853,435.3,863.5,424.8z"/>
		<g>
			<circle class="st10" cx="703.2" cy="267.3" r="104.8"/>
			<g>
				<g>
					<polygon class="st11" points="625.7,271 599.6,247.8 586.8,271 					"/>
					<polygon class="st11" points="648.5,400 625.7,271 586.8,271 621,400 					"/>
				</g>
				<g>
					<polygon class="st11" points="664.7,271 641.2,247.8 625.7,271 					"/>
					<polygon class="st11" points="676,400 664.7,271 625.7,271 648.5,400 					"/>
				</g>
				<g>
					<polygon class="st11" points="703.6,271 682.8,247.8 664.6,271 					"/>
					<polygon class="st11" points="703.6,400 703.6,271 664.6,271 676.1,400 					"/>
				</g>
				<g>
					<polygon class="st11" points="742.5,271 724.4,247.8 703.6,271 					"/>
					<polygon class="st11" points="731.1,400 742.5,271 703.6,271 703.6,400 					"/>
				</g>
				<g>
					<polygon class="st11" points="781.5,271 766,247.8 742.5,271 					"/>
					<polygon class="st11" points="758.7,400 781.5,271 742.5,271 731.2,400 					"/>
				</g>
				<g>
					<polygon class="st11" points="820.4,271 807.6,247.8 781.4,271 					"/>
					<polygon class="st11" points="786.1,400 820.4,271 781.4,271 758.6,400 					"/>
				</g>
				<g>
					<polygon class="st3" points="599.6,247.8 648.5,400 625.7,271 					"/>
					<polygon class="st3" points="641.2,247.8 676.1,400 664.6,271 					"/>
					<polygon class="st3" points="682.8,247.8 703.6,400 703.6,271 					"/>
					<polygon class="st3" points="724.4,247.8 731.2,400 742.5,271 					"/>
					<polygon class="st3" points="766,247.8 758.6,400 781.4,271 					"/>
					<polygon class="st3" points="807.6,247.8 786.1,400 820.4,271 					"/>
				</g>
			</g>
			<path class="st11" d="M703.3,161.6c-46,0-85.2,28.9-100.5,69.5c-1.1,3,1.1,6.3,4.4,6.3h20.2c9.2,0,16.6-7.4,16.6-16.6v-4.9
				c0-9.3,7.2-17.2,16.5-17.5c9.7-0.3,17.7,7.4,17.7,17.1v0c0,8.2,6,15.4,14.2,16.5c11.3,1.4,21-7.4,21-18.4V193
				c0-7.5,5.8-14,13.3-14.4c8-0.4,14.7,6,14.7,14V214c0,10.3,8.3,18.6,18.6,18.6H776h21.4c3.4,0,5.6-3.4,4.3-6.5
				C785.2,188.1,747.3,161.6,703.3,161.6z"/>
			<g>
				<circle class="st6" cx="703" cy="148.7" r="28"/>
				<circle class="st7" cx="695" cy="140.9" r="8.2"/>
				<path class="st6" d="M698,127.6c0,0,2.9-20.9,17.3-25.6c0.8-0.3,1.7-0.1,2.4,0.4l0,0c1.5,1.2,1.4,3.5-0.4,4.4
					c-5.2,2.7-13.3,9.1-12,22.4L698,127.6z"/>
			</g>
		</g>
	</g>
	<g>
		<path class="st12" d="M1335.6,124.2v261.7c0,14.7-5.8,28.5-16.2,38.9c-10.5,10.5-24.3,16.2-38.9,16.2h-261.7
			c-14.7,0-28.5-5.8-38.9-16.2c-10.5-10.5-16.2-24.3-16.2-38.9V124.2c0-14.7,5.8-28.5,16.2-38.9c0.3-0.3,0.5-0.5,0.8-0.8
			c0.4-0.4,0.8-0.7,1.2-1.1c10.2-9.3,23.2-14.3,37-14.3h261.7c14.7,0,28.5,5.8,38.9,16.2C1329.9,95.7,1335.6,109.5,1335.6,124.2z"/>
		<path class="st13" d="M1319.4,424.8c10.5-10.5,16.2-24.3,16.2-38.9V231.7l-103.1-101.6l-185.8,254.5l56.4,56.4h177.3
			C1295.1,441,1309,435.3,1319.4,424.8z"/>
		<g>
			<path class="st3" d="M1243.6,209c22.1-132.5-78.4-78.2-95.5-68c-17.1-10.1-117.6-64.5-95.5,68c0,0-80.4,169.6,11,178.4h83.5h2
				h83.5C1324,378.6,1243.6,209,1243.6,209z"/>
			<path class="st11" d="M1223.4,221.1c17.4-110.5-61.7-65.2-75.3-56.7c-13.5-8.5-92.7-53.8-75.3,56.7c0,0-63.4,141.4,8.6,148.8
				h65.8h1.6h65.8C1286.7,362.5,1223.4,221.1,1223.4,221.1z"/>
			<path class="st14" d="M1223.4,221.1c10.1-64.4-12.5-75.9-35.8-72.6c0,53.7-12.1,194.1-139.9,184.3c2.3,19.7,11.6,34.7,33.8,37
				h65.8h1.6h65.8C1286.7,362.5,1223.4,221.1,1223.4,221.1z"/>
			<circle class="st3" cx="1131" cy="207.7" r="5.9"/>
			<circle class="st3" cx="1104.7" cy="261.9" r="7.5"/>
			<circle class="st3" cx="1147.6" cy="245.1" r="4.1"/>
			<circle class="st3" cx="1170.6" cy="291.9" r="8"/>
			<circle class="st3" cx="1187.6" cy="185.9" r="6.4"/>
			<circle class="st3" cx="1081.3" cy="310.6" r="8.4"/>
			<circle class="st3" cx="1218.7" cy="330.4" r="5.6"/>
			<circle class="st3" cx="1144" cy="343.8" r="5.8"/>
			<circle class="st3" cx="1209.6" cy="250" r="6.4"/>
			<circle class="st3" cx="1099.1" cy="175.7" r="8.4"/>
		</g>
	</g>
	<g>
		<path class="st1" d="M1335.6,566.7v261.7c0,14.7-5.8,28.5-16.2,38.9c-10.5,10.5-24.3,16.2-38.9,16.2h-261.7
			c-14.7,0-28.5-5.8-38.9-16.2c-10.5-10.5-16.2-24.3-16.2-38.9V566.7c0-14.7,5.8-28.5,16.2-38.9c0.3-0.3,0.5-0.5,0.8-0.8
			c0.4-0.4,0.8-0.7,1.2-1.1c10.2-9.3,23.2-14.3,37-14.3h261.7c14.7,0,28.5,5.8,38.9,16.2C1329.9,538.2,1335.6,552.1,1335.6,566.7z"
			/>
		<path class="st2" d="M1262,625.2l-198.4,184.7l73.7,73.7h143.2c14.7,0,28.5-5.8,38.9-16.2c10.5-10.5,16.2-24.3,16.2-38.9V699.5
			L1262,625.2z"/>
		<g>
			<g>
				<path class="st3" d="M1283.3,761.4c-5.6,40.6-60.6,72.5-127.8,72.7s-122.3-31.7-128-72.2L1283.3,761.4z"/>
				<path class="st5" d="M1283.3,761.4c-5.6,40.6-60.6,72.5-127.8,72.7c-7.5,0-14.9-0.4-22.1-1.1c28-14.4,72.2-42.5,61.9-71.4
					L1283.3,761.4z"/>
			</g>
			<path class="st15" d="M1264.8,749.8l-108.4-18.6v-0.1l-0.3,0l-0.3,0v0.1l-108.4,18.6c0,0-21.8,25.9-2.8,27.9
				c18.9,1.9,16.2-16.2,30.9-12.6c14.7,3.6,4.6,15.6,22.5,17.1c17.9,1.5,14.3-17.1,27.3-16.2c12.9,0.9,9.3,15.2,30.5,16.9v0.1
				c0.1,0,0.2,0,0.3,0c0.1,0,0.2,0,0.3,0v-0.1c21.2-1.7,17.6-16,30.5-16.9c13-0.9,9.4,17.7,27.3,16.2s7.9-13.5,22.5-17.1
				c14.7-3.6,11.9,14.5,30.9,12.6C1286.6,775.8,1264.8,749.8,1264.8,749.8z"/>
			<path class="st16" d="M1155.1,732L1155.1,732L1155.1,732l-113.8,14.2v9.1c0,0,102.9,9.8,113.8,42.5v0l0,0
				c10.9-32.7,113.8-42.5,113.8-42.5v-9.1L1155.1,732z"/>
			<path class="st10" d="M1261.8,700.6h-217.3c-7.7,0-14,6.3-14,14v20c0,7.7,6.3,14,14,14h217.3c7.7,0,14-6.3,14-14v-20
				C1275.8,706.9,1269.5,700.6,1261.8,700.6z"/>
			<path class="st17" d="M1261.8,700.6h-3.9c1.9,3.4,3,7.4,3,11.6v0c0,13.2-10.8,24-24,24h-197.2c-3.2,0-6.3-0.7-9.1-1.8v0.3
				c0,7.7,6.3,14,14,14h217.3c7.7,0,14-6.3,14-14v-20C1275.8,706.9,1269.5,700.6,1261.8,700.6z"/>
			<path class="st15" d="M1278.6,684l-122.1-22.8v-0.1l-0.3,0.1l-0.3-0.1v0.1L1033.8,684c0,0-24.5,31.7-3.2,34.1
				c21.3,2.4,18.3-19.8,34.8-15.4c16.5,4.4,5.2,19.1,25.4,20.9c20.2,1.8,16.2-20.9,30.8-19.8c14.5,1.1,10.5,18.5,34.4,20.6v0.1
				c0.1,0,0.2,0,0.3,0c0.1,0,0.2,0,0.3,0v-0.1c23.9-2.1,19.9-19.5,34.4-20.6c14.6-1.1,10.6,21.6,30.8,19.8
				c20.2-1.8,8.8-16.5,25.4-20.9s13.5,17.8,34.8,15.4C1303.1,715.7,1278.6,684,1278.6,684z"/>
			<path class="st6" d="M1043.2,662.9v67.4c0,4.6,3.7,8.3,8.3,8.3l0,0c4.6,0,8.3-3.7,8.3-8.3v-28.5c0-3.5,2.8-6.3,6.3-6.3h3.6
				c3.5,0,6.3,2.8,6.3,6.3v19.4c0,4.4,3.5,7.9,7.9,7.9l0,0c4.4,0,7.9-3.5,7.9-7.9v-11.5c0-5.5,4.4-9.9,9.9-9.9l0,0
				c5.5,0,9.9,4.4,9.9,9.9v14.5c0,5.4,4.3,9.7,9.7,9.7l0,0c5.4,0,9.7-4.3,9.7-9.7v-14.3c0-8.6,7-15.7,15.7-15.7h0
				c8.6,0,15.7,7,15.7,15.7v8.7c0,3.6,2.9,6.5,6.5,6.5l0,0c3.6,0,6.5-2.9,6.5-6.5v-13.3c0-5.3,4.3-9.5,9.5-9.5l0,0
				c5.3,0,9.5,4.3,9.5,9.5v25.4c0,3.5,2.8,6.3,6.3,6.3h0c3.5,0,6.3-2.8,6.3-6.3v-24.6c0-5.3,4.3-9.5,9.5-9.5h0
				c5.3,0,9.5,4.3,9.5,9.5v15.1c0,3.5,2.8,6.3,6.3,6.3l0,0c3.5,0,6.3-2.8,6.3-6.3v-17.8c0-3.5,2.8-6.3,6.3-6.3h4.4
				c3.5,0,6.3,2.8,6.3,6.3v19c0,3.9,3.2,7.1,7.1,7.1l0,0c3.9,0,7.1-3.2,7.1-7.1v-59.5H1043.2z"/>
			<g>
				<g>
					<path class="st3" d="M1283.3,686.3c-5.6-65.7-60.7-117.3-127.9-117.3c-67.2,0-122.3,51.6-127.9,117.3H1283.3z"/>
					<path class="st5" d="M1283.3,686.3c-5.6-65.7-60.7-117.3-127.9-117.3c-7.5,0-14.9,0.7-22.1,1.9c28,23.3,72.3,68.5,62,115.4
						H1283.3z"/>
				</g>
				<g>
					<ellipse class="st7" cx="1122.4" cy="582.1" rx="8.9" ry="3.7"/>
					<ellipse class="st7" cx="1180.9" cy="582.4" rx="8.9" ry="3.7"/>
					<ellipse class="st7" cx="1216.4" cy="602.9" rx="8.9" ry="3.7"/>
					<ellipse class="st7" cx="1131.6" cy="613.5" rx="8.9" ry="3.7"/>
					<ellipse class="st7" cx="1102.4" cy="600.3" rx="8" ry="3.3"/>
					<ellipse class="st7" cx="1190.2" cy="615.5" rx="8.9" ry="3.7"/>
					<ellipse class="st7" cx="1159.3" cy="598.5" rx="7.9" ry="3.3"/>
				</g>
			</g>
		</g>
	</g>
	<g>
		<path class="st8" d="M436.4,1014.1v261.7c0,14.7-5.8,28.5-16.2,38.9c-10.5,10.5-24.3,16.2-38.9,16.2H119.5
			c-14.7,0-28.5-5.8-38.9-16.2c-10.5-10.5-16.2-24.3-16.2-38.9v-261.7c0-14.7,5.8-28.5,16.2-38.9c0.3-0.3,0.5-0.5,0.8-0.8
			c0.4-0.4,0.8-0.7,1.2-1.1c10.2-9.3,23.2-14.3,37-14.3h261.7c14.7,0,28.5,5.8,38.9,16.2C430.6,985.6,436.4,999.5,436.4,1014.1z"/>
		<path class="st18" d="M344.8,1023.1l-202.6,229L221,1331h160.2c14.7,0,28.5-5.8,38.9-16.2c10.5-10.5,16.2-24.3,16.2-38.9v-161.1
			L344.8,1023.1z"/>
		<g>
			<circle class="st3" cx="252.1" cy="1145.6" r="152.9"/>
			<circle class="st11" cx="252.1" cy="1145.6" r="121.2"/>
			<path class="st19" d="M252.1,1024.4c-1.9,0-3.7,0-5.6,0.1c64.3,2.9,115.6,56,115.6,121c0,65-51.3,118.1-115.6,121
				c1.9,0.1,3.7,0.1,5.6,0.1c66.9,0,121.2-54.3,121.2-121.2S319,1024.4,252.1,1024.4z"/>
			<g>
				<path class="st6" d="M192.1,1155.6l-37.3,37.3c-9.5-10.4-9.3-26.5,0.8-36.6C165.6,1146.4,181.7,1146.1,192.1,1155.6z"/>
				<path class="st20" d="M184.9,1162.9l-22.9,22.9c-4-6.4-3.3-15,2.3-20.6C169.9,1159.6,178.5,1158.8,184.9,1162.9z"/>
			</g>
			<g>
				<path class="st6" d="M283.8,1090.4l-37.3-37.3c10.4-9.5,26.5-9.3,36.6,0.8C293.1,1063.9,293.4,1080,283.8,1090.4z"/>
				<path class="st20" d="M276.6,1083.2l-22.9-22.9c6.4-4,15-3.3,20.6,2.3C279.9,1068.2,280.6,1076.8,276.6,1083.2z"/>
			</g>
			<g>
				<path class="st6" d="M316.9,1240.5l-47-47c13-12,33.3-11.7,46,1C328.5,1207.2,328.9,1227.5,316.9,1240.5z"/>
				<path class="st20" d="M307.8,1231.4l-28.8-28.8c8.1-5.1,18.8-4.1,25.9,2.9C311.9,1212.6,312.9,1223.4,307.8,1231.4z"/>
			</g>
			<g>
				<path class="st6" d="M261.8,1171l-36-36c10-9.2,25.5-8.9,35.2,0.8C270.7,1145.5,271,1161.1,261.8,1171z"/>
				<path class="st20" d="M254.8,1164.1l-22-22c6.2-3.9,14.4-3.2,19.8,2.2C258,1149.7,258.7,1157.9,254.8,1164.1z"/>
			</g>
			<g>
				<circle class="st21" cx="202" cy="1087.3" r="29.5"/>
				<circle class="st22" cx="189" cy="1085.8" r="8.4"/>
				<circle class="st22" cx="214.9" cy="1097.5" r="5.8"/>
				<circle class="st22" cx="208.5" cy="1076.4" r="3.4"/>
			</g>
			<g>
				<circle class="st21" cx="329.4" cy="1136.7" r="29.5"/>
				<circle class="st22" cx="316.4" cy="1135.2" r="8.4"/>
				<circle class="st22" cx="342.3" cy="1147" r="5.8"/>
				<circle class="st22" cx="336" cy="1125.8" r="3.4"/>
			</g>
			<g>
				<circle class="st21" cx="232.5" cy="1231.2" r="26.6"/>
				<circle class="st22" cx="220.8" cy="1229.8" r="7.6"/>
				<circle class="st22" cx="244.1" cy="1240.3" r="5.2"/>
				<circle class="st22" cx="238.4" cy="1221.3" r="3.1"/>
			</g>
			<circle class="st15" cx="162.3" cy="1118.7" r="10"/>
			<circle class="st15" cx="223.5" cy="1172.4" r="8.1"/>
			<circle class="st15" cx="178.9" cy="1213.7" r="9.5"/>
			<circle class="st15" cx="281.5" cy="1239" r="6.2"/>
			<circle class="st15" cx="291.4" cy="1160.1" r="5.4"/>
			<circle class="st15" cx="342.9" cy="1191.2" r="7.1"/>
			<circle class="st15" cx="253.6" cy="1095.8" r="5.4"/>
			<circle class="st15" cx="330.6" cy="1071.1" r="7.3"/>
			<circle class="st15" cx="220" cy="1042.6" r="5.4"/>
		</g>
	</g>
	<g>
		<path class="st10" d="M1335.6,1014.1v261.7c0,14.7-5.8,28.5-16.2,38.9c-10.5,10.5-24.3,16.2-38.9,16.2h-261.7
			c-14.7,0-28.5-5.8-38.9-16.2c-10.5-10.5-16.2-24.3-16.2-38.9v-261.7c0-14.7,5.8-28.5,16.2-38.9c0.3-0.3,0.5-0.5,0.8-0.8
			c0.4-0.4,0.8-0.7,1.2-1.1c10.2-9.3,23.2-14.3,37-14.3h261.7c14.7,0,28.5,5.8,38.9,16.2C1329.9,985.6,1335.6,999.5,1335.6,1014.1z"
			/>
		<path class="st23" d="M1280.5,1076.7l-232.7,159.6l94.7,94.7h138c14.7,0,28.5-5.8,38.9-16.2c10.5-10.5,16.2-24.3,16.2-38.9v-143.9
			L1280.5,1076.7z"/>
		<g>
			<g>
				<path class="st24" d="M1280.5,1222.3c0,25.8-53.2,46.7-118.7,46.7s-118.7-20.9-118.7-46.7v-37.7h237.5
					C1280.5,1184.6,1280.5,1220.3,1280.5,1222.3z"/>
				<ellipse class="st3" cx="1161.7" cy="1186.5" rx="118.7" ry="51"/>
			</g>
			<g>
				<path class="st24" d="M1280.5,1169.5c0,25.8-53.2,46.7-118.7,46.7s-118.7-20.9-118.7-46.7v-37.7h237.5
					C1280.5,1131.8,1280.5,1167.5,1280.5,1169.5z"/>
				<ellipse class="st3" cx="1161.7" cy="1133.7" rx="118.7" ry="51"/>
			</g>
			<g>
				<path class="st24" d="M1280.5,1112.6c0,25.8-53.2,46.7-118.7,46.7s-118.7-20.9-118.7-46.7v-37.7h237.5
					C1280.5,1074.9,1280.5,1110.5,1280.5,1112.6z"/>
				<ellipse class="st3" cx="1161.7" cy="1076.7" rx="118.7" ry="51"/>
			</g>
			<g>
				<path class="st25" d="M1222.1,1063.6v14.4l-60,21.4l-61.2-21.9v-15C1100.9,1062.5,1220.5,1062.9,1222.1,1063.6z"/>
				<polygon class="st11" points="1101,1062.5 1162,1084.2 1222.1,1063.6 1164.6,1044.2 				"/>
			</g>
		</g>
	</g>
	<g>
		<path class="st10" d="M879.7,566.7v261.7c0,14.7-5.8,28.5-16.2,38.9c-10.5,10.5-24.3,16.2-38.9,16.2H562.8
			c-14.7,0-28.5-5.8-38.9-16.2c-10.5-10.5-16.2-24.3-16.2-38.9V566.7c0-14.7,5.8-28.5,16.2-38.9c0.3-0.3,0.5-0.5,0.8-0.8
			c0.4-0.4,0.8-0.7,1.2-1.1c10.2-9.3,23.2-14.3,37-14.3h261.7c14.7,0,28.5,5.8,38.9,16.2C873.9,538.2,879.7,552.1,879.7,566.7z"/>
		<path class="st23" d="M839.7,687L564.4,799.4l84.2,84.2h175.9c14.7,0,28.5-5.8,38.9-16.2c10.5-10.5,16.2-24.3,16.2-38.9V727
			L839.7,687z"/>
		<g>
			<path class="st16" d="M643.3,569.5L556,683l284.7,4L646.2,568.9C645.2,568.3,644,568.6,643.3,569.5z"/>
			<path class="st3" d="M839.7,687v98c0,8.5-6.9,15.4-15.4,15.4H571.4c-8.5,0-15.4-6.9-15.4-15.4V683l76.5,1.1l61.2,0.9l92.3,1.3
				l45.8,0.7L839.7,687z"/>
			<g>
				
					<ellipse transform="matrix(0.9751 -0.2216 0.2216 0.9751 -142.0905 191.3684)" class="st26" cx="781.8" cy="728.9" rx="22.8" ry="21.8"/>
				<path class="st27" d="M783.7,707.1c4.7,2.6,8.2,6.9,9.4,12.4c2.4,10.4-4.5,20.8-15.4,23.3c-5.7,1.3-11.4,0.1-15.8-2.7
					c4.8,8.1,14.7,12.5,24.7,10.2c12.3-2.8,20.1-14.6,17.4-26.3C801.8,714.3,793.4,707.7,783.7,707.1z"/>
				<path class="st28" d="M773.2,708.8c-9.5,3.9-15.3,13.4-14,23.2c3.3,3,8.1,4.4,13,3.3c7.7-1.8,12.6-9.1,10.9-16.5
					C782,713.8,778.1,710.1,773.2,708.8z"/>
			</g>
			<g>
				<ellipse class="st26" cx="685.6" cy="766.2" rx="21" ry="19.1"/>
				<path class="st27" d="M691.8,748c3.7,3.1,6,7.5,6,12.4c0,9.3-8.3,16.9-18.6,16.9c-5.4,0-10.2-2.1-13.6-5.4
					c2.6,7.8,10.6,13.5,20.1,13.5c11.6,0,21-8.5,21-19.1C706.6,757.6,700.4,750.3,691.8,748z"/>
				<path class="st28" d="M682,747.4c-9.3,1.5-16.5,8.5-17.3,17.1c2.4,3.2,6.4,5.3,11,5.3c7.3,0,13.2-5.4,13.2-12
					C688.9,753.4,686.1,749.4,682,747.4z"/>
			</g>
			<g>
				
					<ellipse transform="matrix(0.9489 -0.3156 0.3156 0.9489 -197.4139 226.4931)" class="st26" cx="600.5" cy="722.7" rx="21.3" ry="19.8"/>
				<path class="st27" d="M600.4,702.7c4.5,1.9,8.2,5.5,9.8,10.3c3.1,9.2-2.5,19.3-12.3,22.6c-5.2,1.7-10.5,1.2-14.9-1
					c5.1,6.9,14.6,9.9,23.7,6.9c11.2-3.7,17.4-15.1,14-25.5C617.9,707.5,609.5,702.3,600.4,702.7z"/>
				<path class="st28" d="M590.9,705.3c-8.5,4.4-13.1,13.6-11.1,22.4c3.3,2.4,7.9,3.2,12.3,1.8c7-2.3,10.9-9.5,8.8-16
					C599.4,709,595.5,706,590.9,705.3z"/>
			</g>
			<g>
				
					<ellipse transform="matrix(0.9989 -4.710772e-02 4.710772e-02 0.9989 -30.2683 35.0497)" class="st29" cx="728.5" cy="659.7" rx="20.2" ry="12.9"/>
				<path class="st3" d="M728.4,646.8c4.3,1.2,7.8,3.5,9.3,6.7c2.9,5.9-2.4,12.5-11.7,14.6c-4.9,1.1-10,0.8-14.2-0.6
					c4.8,4.4,13.9,6.4,22.6,4.4c10.6-2.4,16.6-9.8,13.3-16.5C745,649.9,737,646.5,728.4,646.8z"/>
				<path class="st5" d="M719.3,648.5c-8.1,2.9-12.5,8.8-10.5,14.5c3.2,1.6,7.5,2.1,11.7,1.1c6.7-1.5,10.4-6.2,8.3-10.4
					C727.5,650.9,723.7,648.9,719.3,648.5z"/>
			</g>
			<g>
				
					<ellipse transform="matrix(0.9989 -4.710772e-02 4.710772e-02 0.9989 -28.657 31.0926)" class="st29" cx="645.3" cy="623.5" rx="20.3" ry="13"/>
				<path class="st3" d="M645.3,610.5c4.3,1.2,7.8,3.6,9.4,6.7c2.9,6-2.4,12.6-11.8,14.7c-5,1.1-10.1,0.8-14.3-0.6
					c4.9,4.5,14.1,6.5,22.8,4.5c10.7-2.4,16.7-9.9,13.4-16.7C662,613.6,654,610.3,645.3,610.5z"/>
				<path class="st5" d="M636.1,612.2c-8.1,2.9-12.6,8.9-10.6,14.6c3.2,1.6,7.6,2.1,11.8,1.1c6.7-1.5,10.5-6.2,8.4-10.5
					C644.3,614.6,640.5,612.7,636.1,612.2z"/>
			</g>
		</g>
	</g>
	<g>
		<path class="st30" d="M436.4,566.7v261.7c0,14.7-5.8,28.5-16.2,38.9c-10.5,10.5-24.3,16.2-38.9,16.2H119.5
			c-14.7,0-28.5-5.8-38.9-16.2c-10.5-10.5-16.2-24.3-16.2-38.9V566.7c0-14.7,5.8-28.5,16.2-38.9c0.3-0.3,0.5-0.5,0.8-0.8
			c0.4-0.4,0.8-0.7,1.2-1.1c10.2-9.3,23.2-14.3,37-14.3h261.7c14.7,0,28.5,5.8,38.9,16.2C430.6,538.2,436.4,552.1,436.4,566.7z"/>
		<path class="st31" d="M288.2,548.2l-43.3,304.7l30.7,30.7h105.6c14.7,0,28.5-5.8,38.9-16.2c10.5-10.5,16.2-24.3,16.2-38.9v-132
			L288.2,548.2z"/>
		<g>
			<path class="st3" d="M168.3,699.7l68.5,147.2c3.6,7.8,14,7.8,17.6,0l68.5-147.2H168.3z"/>
			<path class="st5" d="M254.4,846.9l68.5-147.2h-49.7c-5.6,32-19.5,81.9-53.1,111.3l16.7,35.9C240.4,854.7,250.8,854.7,254.4,846.9
				z"/>
			<g>
				<g>
					<path class="st6" d="M336,715.2c0,13.2-10.7,23.9-23.9,23.9c-10.6,0-19.5-6.8-22.7-16.3c-3.2,9.5-12.1,16.3-22.7,16.3
						c-10.5,0-19.5-6.8-22.7-16.3c-3.2,9.5-12.1,16.3-22.7,16.3c-10.6,0-19.5-6.8-22.7-16.3c-3.2,9.5-12.1,16.3-22.7,16.3
						c-13.2,0-23.9-10.7-23.9-23.9c0-10.6,6.9-19.6,16.5-22.8c-0.1-1.8-0.2-3.6-0.2-5.4c0-1.4,0-2.7,0.1-4.1
						c2.1-41.2,36.2-74,77.9-74c41,0,74.6,31.6,77.8,71.8c0.2,2.1,0.2,4.1,0.2,6.2c0,2.5-0.1,5-0.4,7.5
						C331.2,698.7,336,706.4,336,715.2z"/>
					<path class="st32" d="M324.1,694.6c0.2-2.5,0.4-4.9,0.4-7.5c0-43.1-34.9-78-78-78c-4,0-8,0.3-11.9,0.9
						c7.9,1.8,53.8,16.5,60.4,65.8c1.3,9.9,6.6,18.9,14.9,24.5c5.5,3.8,9.4,10.1,3.9,20.3c-5.9,10.9-24.3,2.3-24.3,2.3
						c3.4,10.2,13.4,17.3,25,16.2c11.7-1.1,21-10.8,21.6-22.6C336.4,707.1,331.5,698.9,324.1,694.6z"/>
				</g>
				<path class="st32" d="M324.2,680.9c-3.6,2.1-7.7,3.3-12.2,3.3c-10.6,0-19.5-6.8-22.7-16.3c-3.2,9.5-12.1,16.3-22.7,16.3
					c-10.5,0-19.5-6.8-22.7-16.3c-3.2,9.5-12.1,16.3-22.7,16.3c-10.6,0-19.5-6.8-22.7-16.3c-3.2,9.5-12.1,16.3-22.7,16.3
					c-2.6,0-5.1-0.4-7.5-1.2c2.1-41.2,36.2-74,77.9-74C287.4,609.1,321,640.7,324.2,680.9z"/>
				<g>
					<path class="st1" d="M324.1,622.5c0.2-2.5,0.4-4.9,0.4-7.5c0-43.1-34.9-78-78-78c-43.1,0-78,34.9-78,78c0,1.8,0.1,3.6,0.2,5.4
						c-9.6,3.1-16.5,12.1-16.5,22.8c0,13.2,10.7,23.9,23.9,23.9c10.6,0,19.5-6.8,22.7-16.3c3.2,9.5,12.1,16.3,22.7,16.3
						c10.6,0,19.5-6.8,22.7-16.3c3.2,9.5,12.1,16.3,22.7,16.3c10.6,0,19.5-6.8,22.7-16.3c3.2,9.5,12.1,16.3,22.7,16.3
						c13.2,0,23.9-10.7,23.9-23.9C336,634.3,331.2,626.6,324.1,622.5z"/>
					<path class="st33" d="M324.1,622.5c0.2-2.5,0.4-4.9,0.4-7.5c0-43.1-34.9-78-78-78c-4,0-8,0.3-11.9,0.9
						c7.9,1.8,53.8,16.5,60.4,65.8c1.3,9.9,6.6,18.9,14.9,24.5c5.5,3.8,9.4,10.1,3.9,20.3c-5.9,10.9-24.3,2.3-24.3,2.3
						c3.4,10.2,13.4,17.3,25,16.2c11.7-1.1,21-10.8,21.6-22.6C336.4,635,331.5,626.8,324.1,622.5z"/>
				</g>
			</g>
		</g>
	</g>
	<g>
		<path class="st12" d="M879.7,1014.1v261.7c0,14.7-5.8,28.5-16.2,38.9c-10.5,10.5-24.3,16.2-38.9,16.2H562.8
			c-14.7,0-28.5-5.8-38.9-16.2c-10.5-10.5-16.2-24.3-16.2-38.9v-261.7c0-14.7,5.8-28.5,16.2-38.9c0.3-0.3,0.5-0.5,0.8-0.8
			c0.4-0.4,0.8-0.7,1.2-1.1c10.2-9.3,23.2-14.3,37-14.3h261.7c14.7,0,28.5,5.8,38.9,16.2C873.9,985.6,879.7,999.5,879.7,1014.1z"/>
		<path class="st34" d="M790.9,1016.8l-170.3,252.8L682,1331h142.5c14.7,0,28.5-5.8,38.9-16.2c10.5-10.5,16.2-24.3,16.2-38.9v-181.4
			L790.9,1016.8z"/>
		<g>
			<path class="st35" d="M692.3,1051.9l-104.4-18.5l28.3,228.9c0.5,3.6,14.3,26.9,76.1,26.9c56.4,0,75.7-23.2,76.1-26.9l28.3-228.9
				L692.3,1051.9z"/>
			<path class="st3" d="M776.3,1198.1l11.6-93.8c-15.7,11-45.6,23.7-95.6,23.7c-52,0-80.5-11.4-95.4-21.9l11.6,93.7
				c16.7,8.1,43,15.1,83.8,15.1C732,1214.9,759,1206.9,776.3,1198.1z"/>
			<ellipse class="st7" cx="692.2" cy="1033.4" rx="104.3" ry="51.5"/>
			<path class="st35" d="M775.6,1033.4c0,4.4-1.4,8.5-3.9,12.5c-10.7,16.6-42.2,28.7-79.5,28.7c-37.2,0-68.8-12-79.5-28.7
				c-2.6-3.9-3.9-8.1-3.9-12.5c0-22.7,37.3-41.2,83.4-41.2S775.6,1010.6,775.6,1033.4z"/>
			<ellipse class="st10" cx="692.2" cy="1045.8" rx="79.5" ry="28.7"/>
		</g>
	</g>
</g>
</svg>
